<svg xmlns="http://www.w3.org/2000/svg" viewBox="0 0 1400 900" fill="none">
  <g opacity="0.95">
    <path
      fill="#6F6F72"
      d="M39 308c48-52 112-97 188-119 73-22 141-19 184-11 18-39 47-78 87-102 56-34 110-39 144-27 26 9 39 27 47 48 15 0 31 4 47 12 40 19 61 58 55 103-4 32-18 59-39 79 29 17 45 42 47 76 4 55-29 96-93 115-55 16-122 13-179 10-34-2-68-5-98-2-63 6-118 26-176 24-77-3-147-45-189-111-26-41-41-101-35-151 5-42 22-77 50-104Z"
    />
    <path
      fill="#59595C"
      d="M17 372c26-37 81-73 131-80 39-6 68 5 96 22 19 11 41 18 63 18 39 0 73-20 108-35 35-14 74-23 110-18 35 5 67 22 92 47 19 19 43 33 69 39 38 9 89 0 123 17 24 12 39 34 41 62 4 48-36 76-79 86-41 10-86 7-128 4-42-3-84-6-123 0-54 8-101 29-155 29-75 0-152-45-196-105-20-28-34-66-31-101 2-31 19-61 44-85Z"
    />
    <path
      fill="#88888C"
      d="M69 430c93 3 171-52 258-54 39-1 77 9 110 31 33 21 61 52 100 63 33 9 70 2 104 10 22 5 45 16 55 37 12 24 0 52-20 69-29 24-69 30-107 31-53 1-103-9-155-5-47 3-90 17-136 17-50 0-104-16-143-48-40-32-66-83-66-134Z"
      opacity="0.7"
    />
    <path
      fill="#7E7E82"
      d="M238 180c12-35 40-75 74-96 24-15 60-23 81-7 12 10 15 27 17 43 5 38 5 77-14 111-16 28-45 49-78 53-22 3-40-7-52-25-16-24-18-53-14-79 0 0-11 22-14 0Z"
    />
    <path
      fill="#545457"
      d="M582 159c18-29 52-48 86-49 27 0 55 12 65 37 14 35-4 79-34 101-28 21-66 31-98 19-16-6-29-19-32-36-4-23 0-50 13-72Z"
    />
    <path
      stroke="#EDEDED"
      stroke-linecap="round"
      stroke-width="18"
      d="M126 392c70 11 128 31 187 67"
      opacity="0.45"
    />
    <path
      stroke="#F5F5F5"
      stroke-linecap="round"
      stroke-width="24"
      d="M200 348c109 19 205 60 290 128"
      opacity="0.55"
    />
    <path
      stroke="#DADADA"
      stroke-linecap="round"
      stroke-width="12"
      d="M278 315c86 12 167 46 236 102"
      opacity="0.35"
    />
    <circle cx="688" cy="312" r="17" fill="#F5F5F5" opacity="0.85" />
    <circle cx="730" cy="280" r="10" fill="#F5F5F5" opacity="0.55" />
    <circle cx="747" cy="338" r="7" fill="#F5F5F5" opacity="0.62" />
    <circle cx="590" cy="253" r="6" fill="#F5F5F5" opacity="0.48" />
    <circle cx="139" cy="295" r="9" fill="#5C5C60" opacity="0.8" />
    <circle cx="204" cy="230" r="6" fill="#5C5C60" opacity="0.74" />
    <circle cx="468" cy="185" r="8" fill="#5C5C60" opacity="0.72" />
  </g>
  <g opacity="0.95">
    <circle cx="1184" cy="368" r="60" fill="#F5F5F5" />
    <path
      fill="#F5F5F5"
      d="M1112 365c-35-7-64-24-94-44 25 29 41 57 52 88-27-17-53-31-83-40 24 23 42 49 58 79 11-26 26-49 43-70-2 34 2 62 11 93 11-31 19-61 39-87 7 37 18 69 40 101 5-36 8-70 23-103 15 30 26 61 34 95 10-29 16-58 16-89 22 23 41 47 56 75-4-32-14-62-29-90 22 8 45 13 69 14-26-12-49-30-72-50 35 3 67-2 100-10-33-6-65-11-95-26 34-13 64-32 92-56-34 7-66 18-99 19 19-22 32-46 42-72-25 22-47 46-77 62 8-27 12-55 10-84-15 27-24 56-44 80-7-34-19-65-39-95 0 34-4 67-16 99-15-29-34-54-57-79 8 33 8 66 4 99-20-28-49-47-84-59 21 24 32 50 40 79Z"
      opacity="0.95"
    />
    <circle cx="1088" cy="338" r="12" fill="#F5F5F5" opacity="0.72" />
    <circle cx="1278" cy="312" r="10" fill="#F5F5F5" opacity="0.7" />
    <circle cx="1306" cy="385" r="8" fill="#F5F5F5" opacity="0.65" />
    <circle cx="1129" cy="456" r="10" fill="#F5F5F5" opacity="0.6" />
  </g>
</svg>
