<svg id="Layer_1" data-name="Layer 1" xmlns="http://www.w3.org/2000/svg" viewBox="0 0 430.52 117.11"><defs><style>.cls-1{fill:#1c75bc;}.cls-2{fill:#fff;}.cls-3{fill:#231f20;}.cls-4{fill:#064974;}.cls-5{fill:#004974;}</style></defs><rect class="cls-1" x="11.89" y="13.49" width="232.1" height="90.12"/><path class="cls-2" d="M108.29,389.36v29.25h39.77V389.36h5.09v66.49h-5.09V422.58H108.29v33.27h-5.08V389.36Z" transform="translate(-82.01 -364.86)"/><path class="cls-2" d="M184.58,432.59l-8.91,23.26h-5.21l26.08-66.49h4.94l26,66.49h-5.27l-9.07-23.26Zm27-3.94-8.78-22.22A120.29,120.29,0,0,1,199,394.71h-.26A112.86,112.86,0,0,1,195,406.23l-8.83,22.42Z" transform="translate(-82.01 -364.86)"/><path class="cls-2" d="M304.07,424.33c-.7-10-1.55-22.19-1.47-29.47h-.3c-2.59,7.23-5.56,14.95-9.71,24.84l-15.14,36.15H273.9l-14.21-35.34c-4.12-10.36-7.17-18.32-9.33-25.65h-.27c-.19,7.82-.7,19.38-1.55,30.41l-2.28,30.58h-5l5.27-66.49h5.83l15.52,38.33c3.39,8.45,5.94,15.14,8,21.55h.24c1.85-6.14,4.41-12.58,8.1-21.48l16.08-38.4h6.1l4.84,66.49h-5Z" transform="translate(-82.01 -364.86)"/><path class="cls-3" d="M337,389.36v40.13c0,16.89,8.58,23.45,19.2,23.45,11.88,0,20.17-7.1,20.17-23.45V389.36h5.08v39.71c0,20.39-11.9,27.86-25.54,27.86-12.57,0-24-6.78-24-27.15V389.36Z" transform="translate(-82.01 -364.86)"/><path class="cls-3" d="M438.11,422.8H409.28v29.08h32.26v4H404.2V389.36h35.63v4H409.28v25.5h28.83Z" transform="translate(-82.01 -364.86)"/><path class="cls-3" d="M459.41,389.36h5.08V451.9h32.15v4H459.41Z" transform="translate(-82.01 -364.86)"/><rect class="cls-4" x="11.89" width="406.74" height="13.58"/><rect class="cls-5" x="11.89" y="103.53" width="406.74" height="13.58"/><rect class="cls-5" y="13.49" width="11.89" height="90.12"/><rect class="cls-5" x="418.63" y="13.58" width="11.89" height="90.03"/><rect class="cls-3" width="11.89" height="13.49"/><rect class="cls-3" y="103.61" width="11.89" height="13.49"/><rect class="cls-3" x="418.63" width="11.89" height="13.58"/><rect class="cls-3" x="418.63" y="103.53" width="11.89" height="13.58"/></svg>