<svg xmlns="http://www.w3.org/2000/svg" viewBox="0 0 1200 800">
  <!-- Splatter - scattered droplets, drips, and blobs (higher contrast) -->
  <path fill="white" fill-opacity="0.55" d="M0 0 Q200 80 180 200 Q160 280 80 220 Q20 180 0 120 Z"/>
  <path fill="white" fill-opacity="0.5" d="M120 0 Q280 40 320 120 Q350 180 280 200 Q200 220 120 100 Z"/>
  <path fill="white" fill-opacity="0.52" d="M700 0 Q900 60 950 150 Q1000 220 880 180 Q800 150 720 80 Z"/>
  <path fill="white" fill-opacity="0.48" d="M850 50 Q1050 100 1100 200 Q1120 280 1000 250 Q920 220 860 120 Z"/>
  <path fill="white" fill-opacity="0.5" d="M0 500 Q100 420 200 480 Q300 550 150 620 Q50 650 0 580 Z"/>
  <path fill="white" fill-opacity="0.45" d="M80 550 Q220 500 280 580 Q320 640 200 700 Q100 720 40 650 Z"/>
  <path fill="white" fill-opacity="0.48" d="M900 550 Q1050 480 1150 560 Q1200 620 1080 680 Q980 720 920 620 Z"/>
  <path fill="white" fill-opacity="0.42" d="M1000 600 Q1120 550 1180 640 Q1200 700 1100 750 Q1020 780 960 700 Z"/>
  <!-- Extra splatter droplets - scattered across canvas -->
  <ellipse cx="280" cy="90" rx="45" ry="65" fill="white" fill-opacity="0.4"/>
  <ellipse cx="420" cy="140" rx="55" ry="40" fill="white" fill-opacity="0.38"/>
  <ellipse cx="550" cy="280" rx="35" ry="50" fill="white" fill-opacity="0.42"/>
  <ellipse cx="180" cy="320" rx="60" ry="35" fill="white" fill-opacity="0.38"/>
  <ellipse cx="350" cy="450" rx="50" ry="55" fill="white" fill-opacity="0.36"/>
  <ellipse cx="620" cy="380" rx="40" ry="45" fill="white" fill-opacity="0.4"/>
  <ellipse cx="750" cy="480" rx="55" ry="40" fill="white" fill-opacity="0.38"/>
  <ellipse cx="150" cy="180" rx="30" ry="45" fill="white" fill-opacity="0.45"/>
  <ellipse cx="480" cy="50" rx="40" ry="55" fill="white" fill-opacity="0.35"/>
  <ellipse cx="900" cy="220" rx="50" ry="35" fill="white" fill-opacity="0.4"/>
  <ellipse cx="110" cy="420" rx="45" ry="50" fill="white" fill-opacity="0.36"/>
  <ellipse cx="1050" cy="520" rx="55" ry="45" fill="white" fill-opacity="0.38"/>
  <!-- Small drips -->
  <ellipse cx="320" cy="250" rx="18" ry="28" fill="white" fill-opacity="0.42"/>
  <ellipse cx="680" cy="120" rx="22" ry="32" fill="white" fill-opacity="0.4"/>
  <ellipse cx="95" cy="580" rx="25" ry="35" fill="white" fill-opacity="0.38"/>
  <ellipse cx="1150" cy="350" rx="20" ry="30" fill="white" fill-opacity="0.4"/>
  <ellipse cx="250" cy="600" rx="30" ry="22" fill="white" fill-opacity="0.36"/>
  <ellipse cx="500" cy="320" rx="15" ry="25" fill="white" fill-opacity="0.44"/>
  <ellipse cx="820" cy="620" rx="28" ry="20" fill="white" fill-opacity="0.38"/>
</svg>
